<svg xmlns="http://www.w3.org/2000/svg" xmlns:xlink="http://www.w3.org/1999/xlink" width="320" height="155" viewBox="0 0 320 155">
  <defs>
    <clipPath id="clip-path">
      <rect id="Rectángulo_192" data-name="Rectángulo 192" width="320" height="155" transform="translate(-1764 -6593)" fill="#fff"/>
    </clipPath>
  </defs>
  <g id="Enmascarar_grupo_61" data-name="Enmascarar grupo 61" transform="translate(1764 6593)" clip-path="url(#clip-path)">
    <g id="linux" transform="translate(-1681.5 -6593)">
      <circle id="Elipse_165" data-name="Elipse 165" cx="77.5" cy="77.5" r="77.5" fill="#9f51b6"/>
      <path id="Trazado_488" data-name="Trazado 488" d="M91.436,23.75,31.466,117.933l36.163,36.444a77.572,77.572,0,0,0,86.818-67.616Z" fill="#934aa8"/>
      <path id="Trazado_489" data-name="Trazado 489" d="M104.029,61.707a25.069,25.069,0,0,1-7.671-22.62A18.07,18.07,0,0,0,79.045,18.262,18.076,18.076,0,0,0,60.991,40.727a24.669,24.669,0,0,1-5.773,23.036,34.422,34.422,0,0,0-9.5,23.621c0,21.053,8.193,31.2,19.916,34.4a27.879,27.879,0,0,1,10.962-1.973,28.573,28.573,0,0,1,10.557,1.8c14.465-2.9,21.326-9.945,26.114-26.21C117.086,82.4,111.158,68.1,104.029,61.707Z" fill="#1d023c"/>
      <path id="Trazado_490" data-name="Trazado 490" d="M104.029,61.707a25.069,25.069,0,0,1-7.671-22.62A18.034,18.034,0,0,0,76.592,18.361V119.807c4.82,0,9.1.933,11.786,2.376,13.685-2.134,20.231-10.978,24.884-26.788C117.086,82.4,111.158,68.1,104.029,61.707Z" fill="#170131"/>
      <path id="Trazado_491" data-name="Trazado 491" d="M53.369,91.651c0-13.726,11-45.512,24.562-45.512s24.562,31.947,24.562,45.512a24.562,24.562,0,1,1-49.124,0Z" fill="#fff"/>
      <path id="Trazado_492" data-name="Trazado 492" d="M77.931,46.139a8.853,8.853,0,0,0-1.339.105v69.931c.444.024.89.038,1.339.038a24.562,24.562,0,0,0,24.562-24.562C102.493,78.086,91.5,46.139,77.931,46.139Z" fill="#c0c2c1"/>
      <ellipse id="Elipse_166" data-name="Elipse 166" cx="4.045" cy="5.492" rx="4.045" ry="5.492" transform="translate(64.827 33.713)" fill="#e6e6e6"/>
      <ellipse id="Elipse_167" data-name="Elipse 167" cx="2.006" cy="3.56" rx="2.006" ry="3.56" transform="translate(66.866 36.892)" fill="#000100"/>
      <ellipse id="Elipse_168" data-name="Elipse 168" cx="4.045" cy="5.492" rx="4.045" ry="5.492" transform="translate(79.231 33.713)" fill="#e6e6e6"/>
      <ellipse id="Elipse_169" data-name="Elipse 169" cx="2.006" cy="3.56" rx="2.006" ry="3.56" transform="translate(81.27 36.892)" fill="#000100"/>
      <path id="Trazado_493" data-name="Trazado 493" d="M88.7,48.6c1.321,2.818-8.741,8.163-12.245,8.163-4.371,0-13.5-6.46-12.245-8.163,2.337-3.179,7.441-8.308,11.631-8.308C78.854,40.288,87.8,46.681,88.7,48.6Z" fill="#fe9a0f"/>
      <path id="Trazado_494" data-name="Trazado 494" d="M88.695,48.6c-.832-1.774-8.571-7.392-12.1-8.206V56.752C80.213,56.619,90,51.377,88.695,48.6Z" fill="#e2810c"/>
      <path id="Trazado_495" data-name="Trazado 495" d="M104.01,92.561c1.786,3.449,4.441,6.706,7.866,7.461a6.1,6.1,0,0,1,4.718,5.277q.059.535.16,1.073a13.944,13.944,0,0,0,2.8,6.136,4.433,4.433,0,0,1-2.684,7.086l-25.752,4.88a6.6,6.6,0,0,1-6.869-9.9L98.469,92.28A3.2,3.2,0,0,1,104.01,92.561Z" fill="#dd7f10"/>
      <path id="Trazado_496" data-name="Trazado 496" d="M76.408,55.162c-3.659,0-7.392-1.789-11.114-5.33l1.252-1.316c3.711,3.53,7.354,5.138,10.825,4.78,4.793-.495,7.678-4.6,7.706-4.638l1.495,1.032c-.136.2-3.4,4.833-9.014,5.413A11.168,11.168,0,0,1,76.408,55.162Z" fill="#ae4e32"/>
      <path id="Trazado_497" data-name="Trazado 497" d="M77.372,53.3c-.259.027-.519.039-.78.044v1.818c.323-.005.645-.021.966-.054,5.616-.58,8.878-5.216,9.014-5.413l-1.495-1.032C85.05,48.7,82.164,52.8,77.372,53.3Z" fill="#9e402b"/>
      <circle id="Elipse_170" data-name="Elipse 170" cx="8.25" cy="8.25" r="8.25" transform="translate(99.264 88.28)" fill="#170131"/>
      <path id="Trazado_498" data-name="Trazado 498" d="M51.768,87.49s8.815,10.747,15.1,13.169-2.988,9.453-11.464,4.121S51.768,87.49,51.768,87.49Z" fill="#170131"/>
      <path id="Trazado_499" data-name="Trazado 499" d="M47.03,92.561c-1.786,3.449-4.441,6.706-7.866,7.461a6.1,6.1,0,0,0-4.718,5.277q-.059.535-.159,1.073a13.944,13.944,0,0,1-2.8,6.136,4.433,4.433,0,0,0,2.684,7.086l25.752,4.88a6.6,6.6,0,0,0,6.869-9.9L52.571,92.28A3.2,3.2,0,0,0,47.03,92.561Z" fill="#fe9b0e"/>
    </g>
  </g>
</svg>
