<svg xmlns="http://www.w3.org/2000/svg" xmlns:xlink="http://www.w3.org/1999/xlink" width="320" height="155" viewBox="0 0 320 155">
  <defs>
    <clipPath id="clip-path">
      <rect id="Rectángulo_195" data-name="Rectángulo 195" width="320" height="155" transform="translate(-1401 -6396)" fill="#fff"/>
    </clipPath>
  </defs>
  <g id="Enmascarar_grupo_64" data-name="Enmascarar grupo 64" transform="translate(1401 6396)" clip-path="url(#clip-path)">
    <g id="reaccionar" transform="translate(-1318.5 -6396)">
      <path id="Trazado_514" data-name="Trazado 514" d="M155,77.5A77.5,77.5,0,1,1,77.5,0,77.393,77.393,0,0,1,155,77.5Z" fill="#170131"/>
      <g id="Grupo_70" data-name="Grupo 70">
        <path id="Trazado_515" data-name="Trazado 515" d="M123.681,121.137c-.364-2.439-.845-4.951-1.439-7.519q-.788-3.383-1.828-6.89a150.305,150.305,0,0,0-7.133-18.941q-1.912-4.223-4.112-8.468-1.936-3.734-4.084-7.459t-4.419-7.266Q98.1,60.575,95.389,56.8A149.583,149.583,0,0,0,82.552,41.151Q80.042,38.5,77.5,36.128q-2.889-2.7-5.8-5.011C59.087,21.1,47.791,18.091,39.892,22.649S28.95,38.5,31.317,54.437c.361,2.439.845,4.951,1.443,7.519q.778,3.383,1.825,6.89a149.636,149.636,0,0,0,7.136,18.941q1.908,4.223,4.109,8.465,1.936,3.739,4.084,7.462t4.419,7.266Q56.9,115,59.609,118.774a149.5,149.5,0,0,0,12.837,15.649q2.51,2.652,5.055,5.026,2.889,2.7,5.792,5.008a57.882,57.882,0,0,0,13.279,8.177A77.171,77.171,0,0,0,123.6,139.8C124.715,134.673,124.756,128.388,123.681,121.137Zm-7.1,17.515c-.921,3.979-2.613,6.706-5.033,8.1s-5.624,1.5-9.531.31c-4.233-1.294-9.173-4.122-14.291-8.187q-2.581-2.05-5.169-4.451-2.534-2.354-5.055-5.02c-2.879-3.046-5.726-6.38-8.5-9.958q-2.78-3.582-5.46-7.475c-2.584-3.755-5.08-7.709-7.453-11.821s-4.552-8.25-6.51-12.365q-2.031-4.256-3.742-8.465c-1.711-4.194-3.176-8.329-4.375-12.343-.7-2.341-1.306-4.637-1.816-6.886-.525-2.29-.952-4.53-1.275-6.7-.961-6.462-.939-12.156.057-16.468.921-3.979,2.616-6.706,5.033-8.1a9.043,9.043,0,0,1,4.59-1.133,17.009,17.009,0,0,1,4.941.826c4.233,1.291,9.173,4.122,14.291,8.184q2.581,2.05,5.169,4.457Q74.983,43.5,77.5,46.168c2.882,3.046,5.729,6.38,8.509,9.961q2.78,3.582,5.46,7.475c2.581,3.755,5.077,7.709,7.449,11.818s4.552,8.25,6.51,12.365q2.031,4.261,3.742,8.468c1.711,4.194,3.176,8.326,4.375,12.34q1.044,3.511,1.819,6.886c.522,2.29.949,4.53,1.272,6.7C117.594,128.647,117.572,134.341,116.576,138.652Z" fill="#5adafd"/>
        <path id="Trazado_516" data-name="Trazado 516" d="M129.473,64.471q-3.44-1.357-7.234-2.515-3.321-1.011-6.88-1.863a149.731,149.731,0,0,0-19.97-3.29c-3.072-.307-6.206-.531-9.382-.674-2.8-.13-5.643-.2-8.506-.2s-5.7.066-8.509.2c-3.179.142-6.314.37-9.385.674a149.683,149.683,0,0,0-19.967,3.29q-3.554.849-6.88,1.863-3.786,1.153-7.234,2.515c-14.984,5.915-23.24,14.2-23.24,23.316s8.256,17.4,23.241,23.32q3.44,1.357,7.231,2.515,3.321,1.011,6.88,1.86a149.684,149.684,0,0,0,19.973,3.293c3.072.3,6.206.528,9.385.674,2.8.13,5.643.193,8.506.193s5.7-.063,8.5-.193q4.769-.218,9.385-.674a149.285,149.285,0,0,0,19.973-3.293q3.554-.849,6.88-1.863c2.521-.769,4.938-1.607,7.231-2.512,14.987-5.918,23.241-14.2,23.241-23.32S144.46,70.386,129.473,64.471Zm11.615,31.724c-3.233,3.021-8.155,5.884-14.232,8.285q-3.07,1.21-6.444,2.249-3.307,1.02-6.871,1.866c-4.078.971-8.389,1.768-12.878,2.385q-4.489.622-9.2.99c-4.546.364-9.218.547-13.966.547s-9.42-.183-13.966-.544c-3.135-.247-6.209-.579-9.2-.993-4.489-.617-8.8-1.414-12.878-2.385q-3.559-.845-6.871-1.866-3.369-1.034-6.444-2.249c-6.076-2.4-11-5.264-14.232-8.285-2.986-2.787-4.5-5.615-4.5-8.408s1.515-5.621,4.5-8.408c3.233-3.021,8.155-5.884,14.232-8.285q3.07-1.21,6.444-2.249,3.307-1.02,6.871-1.866c4.078-.971,8.389-1.768,12.878-2.385,2.993-.414,6.067-.747,9.2-.993,4.546-.361,9.218-.544,13.966-.544s9.42.183,13.966.547q4.7.366,9.2.99c4.489.617,8.8,1.414,12.878,2.385q3.559.845,6.871,1.866,3.369,1.034,6.444,2.249c6.076,2.4,11,5.264,14.232,8.285,2.986,2.787,4.5,5.615,4.5,8.408S144.074,93.408,141.088,96.195Z" fill="#5adafd"/>
        <path id="Trazado_517" data-name="Trazado 517" d="M115.1,22.649c-7.9-4.558-19.195-1.55-31.813,8.468q-2.894,2.3-5.792,5.011-2.538,2.368-5.055,5.026A149.9,149.9,0,0,0,59.606,56.8q-2.7,3.767-5.273,7.791-2.273,3.544-4.419,7.266T45.83,79.322q-2.2,4.237-4.109,8.465a149.828,149.828,0,0,0-7.136,18.941q-1.044,3.507-1.829,6.893-.892,3.853-1.439,7.516c-1.076,7.247-1.034,13.533.079,18.663a77.126,77.126,0,0,0,27.03,12.834,57.872,57.872,0,0,0,13.279-8.177q2.9-2.3,5.8-5.008,2.538-2.368,5.052-5.023a149.975,149.975,0,0,0,12.837-15.652q2.7-3.768,5.276-7.794,2.273-3.544,4.419-7.266t4.084-7.459q2.2-4.237,4.112-8.468a150.085,150.085,0,0,0,7.133-18.941q1.039-3.5,1.825-6.89c.6-2.569,1.079-5.08,1.443-7.519C126.046,38.5,123,27.21,115.1,22.649Zm-1.562,44.33c-1.2,4.014-2.663,8.145-4.375,12.34q-1.708,4.2-3.742,8.468c-1.958,4.115-4.134,8.253-6.51,12.365s-4.868,8.063-7.449,11.818Q88.79,115.861,86,119.448c-2.777,3.578-5.624,6.912-8.506,9.958q-2.51,2.657-5.052,5.017-2.581,2.4-5.169,4.454c-5.118,4.065-10.059,6.893-14.291,8.187-3.906,1.189-7.114,1.088-9.531-.31s-4.112-4.122-5.033-8.1c-1-4.312-1.019-10.005-.057-16.468.323-2.173.75-4.413,1.271-6.7q.769-3.374,1.819-6.886c1.2-4.014,2.663-8.149,4.375-12.343q1.708-4.2,3.742-8.465c1.958-4.115,4.134-8.253,6.51-12.365S60.95,67.355,63.535,63.6q2.671-3.886,5.456-7.471c2.781-3.581,5.628-6.915,8.506-9.961q2.515-2.662,5.055-5.017,2.586-2.4,5.169-4.454c5.118-4.061,10.059-6.893,14.291-8.184a17.009,17.009,0,0,1,4.941-.826,9.035,9.035,0,0,1,4.59,1.133c2.42,1.4,4.112,4.122,5.033,8.1,1,4.312,1.019,10.005.057,16.468-.323,2.173-.75,4.413-1.275,6.7C114.849,62.341,114.238,64.638,113.542,66.979Z" fill="#5adafd"/>
        <circle id="Elipse_172" data-name="Elipse 172" cx="14.136" cy="14.136" r="14.136" transform="translate(63.364 73.65)" fill="#5adafd"/>
      </g>
    </g>
  </g>
</svg>
