<svg xmlns="http://www.w3.org/2000/svg" width="383.999" height="512.001" viewBox="0 0 383.999 512.001">
  <g id="spock" transform="translate(-64)">
    <g id="Grupo_66" data-name="Grupo 66">
      <path id="Trazado_480" data-name="Trazado 480" d="M444.877,280.458l-7.542-7.542c-18.021-18.031-47.481-21.958-69.482-9.313l-46.981,26.854,9.792-215.083a32.715,32.715,0,0,0-43.835-30.76L288,33.072A33.17,33.17,0,0,0,254.808,0c-16.917,0-31.1,12.688-32.9,28.958L191.764,211.1c-.4,2.479-4.688,2.229-5.146.667L151.012,65.74a31.986,31.986,0,0,0-30.6-23.073A31.807,31.807,0,0,0,89.448,81.772l6.917,29.406A29.072,29.072,0,0,0,84.7,112.657a30.268,30.268,0,0,0-20.334,33.51l20.959,120.5c0,47.542,8.334,82.719,15.334,103.844a119.959,119.959,0,0,1,6,37.677,120.981,120.981,0,0,1-4.667,33.323l-16.251,56.9A10.649,10.649,0,0,0,95.989,512H288a10.68,10.68,0,0,0,10.125-14.042c-.1-.281-9.021-27.823-.583-65.292,10.709-8.688,48.189-39.167,61.648-51.458,22.251-20.323,83.211-83.115,85.8-85.781A10.659,10.659,0,0,0,444.877,280.458Z" fill="#b0b8e3"/>
    </g>
  </g>
</svg>
