<svg id="github_copia" data-name="github copia" xmlns="http://www.w3.org/2000/svg" xmlns:xlink="http://www.w3.org/1999/xlink" width="438.535" height="438.537" viewBox="0 0 438.535 438.537">
  <defs>
    <linearGradient id="linear-gradient" x1="0.5" x2="-5.064" y2="1" gradientUnits="objectBoundingBox">
      <stop offset="0" stop-color="#fc5c7d"/>
      <stop offset="1" stop-color="#6a82fb"/>
    </linearGradient>
    <linearGradient id="linear-gradient-4" x1="0" x2="1" xlink:href="#linear-gradient"/>
  </defs>
  <g id="Grupo_65" data-name="Grupo 65">
    <path id="Trazado_472" data-name="Trazado 472" d="M158.173,352.6q-4.573.852-4,4.281t5.138,2.283q4.573-1.14,4-4Q162.742,352.028,158.173,352.6Z" fill="url(#linear-gradient)"/>
    <path id="Trazado_473" data-name="Trazado 473" d="M141.9,354.885c-3.046,0-4.568,1.041-4.568,3.139q0,3.711,4.853,3.138,4.569,0,4.57-3.138Q146.753,354.318,141.9,354.885Z" fill="url(#linear-gradient)"/>
    <path id="Trazado_474" data-name="Trazado 474" d="M119.629,354.022q-1.14,3.143,3.711,4.284,4.283,1.705,5.424-1.714.858-3.137-3.711-4.568C122.2,351.265,120.39,351.922,119.629,354.022Z" fill="url(#linear-gradient)"/>
    <path id="Trazado_475" data-name="Trazado 475" d="M414.41,24.123Q390.284,0,356.309,0H82.225q-33.972,0-58.1,24.123T0,82.225V356.313q0,33.975,24.123,58.1t58.1,24.126h63.953a77.214,77.214,0,0,0,9.42-.424q3.138-.432,6.279-3.717t3.14-9.562q0-.852-.144-19.417t-.144-29.41l-6.567,1.143a84.03,84.03,0,0,1-15.846,1,121.928,121.928,0,0,1-19.841-2,44.481,44.481,0,0,1-19.13-8.562,36.239,36.239,0,0,1-12.56-17.559l-2.856-6.571A71.322,71.322,0,0,0,78.937,328.9q-6.14-8-12.419-10.852l-2-1.428a20.994,20.994,0,0,1-3.711-3.429,15.864,15.864,0,0,1-2.568-4q-.856-2,1.427-3.289t8.28-1.279l5.708.855q5.712,1.14,14.134,6.851a46.074,46.074,0,0,1,13.846,14.843q6.57,11.709,15.846,17.843t18.7,6.143a81.111,81.111,0,0,0,16.274-1.424,56.841,56.841,0,0,0,12.847-4.288q2.569-19.127,13.988-29.41a195.508,195.508,0,0,1-29.265-5.14,116.632,116.632,0,0,1-26.835-11.136,76.837,76.837,0,0,1-22.985-19.13q-9.135-11.427-14.987-29.978t-5.852-42.829q0-34.544,22.557-58.814-10.566-25.98,2-58.242,8.28-2.571,24.554,3.855t23.84,10.992q7.569,4.563,12.135,7.71a206.135,206.135,0,0,1,109.639,0l10.849-6.852a153.589,153.589,0,0,1,26.269-12.562q15.132-5.709,23.127-3.14,12.843,32.265,2.279,58.241,22.554,24.269,22.559,58.815,0,24.27-5.852,42.969t-15.13,29.981a79.838,79.838,0,0,1-23.124,18.986,116.472,116.472,0,0,1-26.84,11.132,195.369,195.369,0,0,1-29.263,5.147Q273.8,328.892,273.8,356.587v68.238a18.375,18.375,0,0,0,1.424,7.851,7.888,7.888,0,0,0,4.571,4.141,25.3,25.3,0,0,0,5.571,1.424,64.1,64.1,0,0,0,6.995.287h63.953q33.972,0,58.1-24.126t24.126-58.1V82.225Q438.532,48.252,414.41,24.123Z" fill="url(#linear-gradient-4)"/>
    <path id="Trazado_476" data-name="Trazado 476" d="M86.793,319.2q-2,1.422.572,4.565,2.859,2.853,4.57.855,2-1.422-.575-4.569Q88.507,317.481,86.793,319.2Z" fill="url(#linear-gradient)"/>
    <path id="Trazado_477" data-name="Trazado 477" d="M77.374,312.057q-.855,2,2,3.426c1.521.955,2.762.767,3.711-.568q.855-2-2-3.433Q78.23,310.624,77.374,312.057Z" fill="url(#linear-gradient)"/>
    <path id="Trazado_478" data-name="Trazado 478" d="M95.646,330.331q-2.572,1.422,0,5.137t4.853,2q2.571-2,0-5.427C98.978,329.571,97.359,328.993,95.646,330.331Z" fill="url(#linear-gradient)"/>
    <path id="Trazado_479" data-name="Trazado 479" d="M105.641,343.174c-1.714,1.526-1.336,3.327,1.142,5.428q3.421,3.418,5.708.849,2.286-2.279-1.142-5.42Q107.928,340.611,105.641,343.174Z" fill="url(#linear-gradient)"/>
  </g>
</svg>
